<svg width="58" height="21" viewBox="0 0 58 21" fill="none" xmlns="http://www.w3.org/2000/svg">
<rect width="100%" height="100%" fill="#e5e8be" />
<path d="M24.2055 11.8994L23.7215 9.5368L22.5402 10.2341C22.048 9.988 21.4901 9.8485 20.8994 9.8485C20.3169 9.8485 19.7591 9.9797 19.2587 10.2341V10.2587L18.0691 11.358L17.5933 11.8994C17.339 12.3998 17.2078 12.9577 17.2078 13.5402V16.5814C17.2078 18.6159 18.861 20.2692 20.8955 20.2692C22.9875 20.2692 24.5872 18.5628 24.5872 16.5775L24.5911 13.5402C24.5911 12.9495 24.4517 12.3916 24.2055 11.8994ZM22.5363 16.5775C22.5363 17.4963 21.7898 18.2183 20.8955 18.2183C19.9931 18.2183 19.2548 17.4799 19.2548 16.5775L19.2586 13.5648L20.8994 13.5566L22.5401 13.5401L22.5363 16.5775Z" fill="#4A696F"/>
<path d="M24.591 13.5401L24.5871 16.5775C24.5871 18.5628 22.9874 20.2692 20.8954 20.2692V18.2183C21.7897 18.2183 22.5362 17.4963 22.5362 16.5775L22.5401 13.5402L20.8993 13.5565V9.84854C21.49 9.84854 22.0478 9.98794 22.5401 10.234L23.7214 9.53674L24.2054 11.8994C24.4515 12.3916 24.591 12.9495 24.591 13.5401Z" fill="#384949"/>
<path d="M27.4624 12.3096H26.642C26.4153 12.3096 26.2318 12.1262 26.2318 11.8994C26.2318 11.6727 26.4153 11.4892 26.642 11.4892H27.4624C27.6891 11.4892 27.8726 11.6727 27.8726 11.8994C27.8725 12.1262 27.6891 12.3096 27.4624 12.3096Z" fill="#D2C5C2"/>
<path d="M15.1569 12.3096H14.3365C14.1097 12.3096 13.9263 12.1262 13.9263 11.8995C13.9263 11.6728 14.1098 11.4893 14.3365 11.4893H15.1568C15.3835 11.4893 15.567 11.6728 15.567 11.8995C15.567 12.1262 15.3835 12.3096 15.1569 12.3096Z" fill="#DFD7D5"/>
<path d="M25.5172 9.23323C25.4038 9.03693 25.4711 8.78623 25.6674 8.67283L26.378 8.26263C26.5735 8.14853 26.8247 8.21703 26.9384 8.41283C27.0518 8.60913 26.9845 8.85993 26.7882 8.97323L26.0776 9.38343C25.8826 9.49613 25.6315 9.43053 25.5172 9.23323Z" fill="#D2C5C2"/>
<path d="M14.8604 15.386C14.747 15.1897 14.8143 14.939 15.0106 14.8256L15.7212 14.4154C15.9159 14.3016 16.1679 14.3694 16.2816 14.5656C16.395 14.7619 16.3277 15.0127 16.1315 15.126L15.4208 15.5362C15.2258 15.6488 14.9746 15.5833 14.8604 15.386Z" fill="#DFD7D5"/>
<path d="M26.378 15.5362L25.6674 15.126C25.4711 15.0126 25.4038 14.7619 25.5172 14.5656C25.6306 14.3693 25.8805 14.3016 26.0776 14.4154L26.7882 14.8256C26.9845 14.939 27.0518 15.1897 26.9384 15.386C26.8242 15.5832 26.573 15.6489 26.378 15.5362Z" fill="#D2C5C2"/>
<path d="M15.7212 9.38349L15.0106 8.97329C14.8143 8.85989 14.747 8.60919 14.8604 8.41289C14.9742 8.21699 15.2241 8.14849 15.4208 8.26269L16.1314 8.67289C16.3277 8.78629 16.395 9.03699 16.2816 9.23329C16.1674 9.43049 15.9162 9.49609 15.7212 9.38349Z" fill="#DFD7D5"/>
<path d="M20.9033 3.52972C18.8688 3.52972 17.2116 5.17862 17.2116 7.22142L17.2078 10.2587C17.2078 10.8494 17.3472 11.4072 17.5933 11.8995C17.9543 12.6214 18.5367 13.2038 19.2587 13.5648C19.7509 13.8109 20.3088 13.9504 20.8994 13.9504C21.4737 13.9504 22.0315 13.8191 22.5402 13.5648V13.5402C22.5402 12.6378 21.8018 11.8995 20.8994 11.8995C19.997 11.8995 19.2587 11.1611 19.2587 10.2587L19.2626 7.22142C19.2626 6.77832 19.4349 6.37642 19.7466 6.06462C19.7466 6.04832 19.8204 5.98262 19.845 5.97442C20.0665 5.75292 20.4767 5.58062 20.9033 5.58062C21.8057 5.58062 22.544 6.31892 22.544 7.22142L22.5402 10.2341C23.2621 10.595 23.8446 11.1775 24.2056 11.8994C24.4517 11.399 24.5911 10.833 24.5911 10.2587L24.595 7.22132C24.595 5.18682 22.9378 3.52972 20.9033 3.52972Z" fill="#FFD400"/>
<path d="M22.5401 13.5401V13.5647C22.0315 13.819 21.4736 13.9504 20.8994 13.9503V11.8994C21.8018 11.8994 22.5401 12.6377 22.5401 13.5401Z" fill="#FF9F00"/>
<path d="M24.5949 7.22139L24.5911 10.2587C24.5911 10.833 24.4516 11.3991 24.2055 11.8995C23.8445 11.1775 23.2621 10.5951 22.5401 10.2341L22.544 7.22139C22.544 6.31899 21.8057 5.58069 20.9033 5.58069V3.52972C22.9378 3.52968 24.5949 5.18679 24.5949 7.22139Z" fill="#FF9F00"/>
<path d="M5.7578 2.54297V15.7969H11.5586V10.3242H13.75V18H0.8125V15.7969H3.0859V2.54297H0.8125V0.339844H8.0312V2.54297H5.7578ZM40.2109 9.7148V15.8438H42.2734V18H37.7852V9.8672C37.7852 9.0938 37.6719 8.5391 37.4453 8.2031C37.2266 7.8672 36.8633 7.6992 36.3555 7.6992C35.2773 7.6992 34.0664 8.2305 32.7227 9.293V15.8438H34.8438V18H28.1641V15.8438H30.332V7.8516H28.1641V5.6836H32.7227V7.1719C34.2305 6.0703 35.6484 5.5195 36.9766 5.5195C38.0781 5.5195 38.8906 5.8594 39.4141 6.5391C39.9453 7.2188 40.2109 8.2773 40.2109 9.7148ZM52.281 7.6992H50.336V5.6836H57.156V7.6992H55.258L50.652 11.5195L55 15.8438H57.156V18H53.957L47.793 11.7891V15.8438H49.879V18H43.1641V15.8438H45.3672V2.47266H43.1641V0.339844H47.793V11.4727L52.281 7.6992Z" fill="#FF9F00"/>
</svg>
